<?xml version="1.0" encoding="UTF-8"?>
<svg id="Layer_1" xmlns="http://www.w3.org/2000/svg" version="1.1" viewBox="0 0 500 137.79">
  <!-- Generator: Adobe Illustrator 30.1.0, SVG Export Plug-In . SVG Version: 2.1.1 Build 136)  -->
  <defs>
    <style>
      .st0 {
        fill: none;
        stroke: #fff;
        stroke-miterlimit: 10;
        stroke-width: 10px;
      }

      .st1 {
        fill: #003254;
      }

      .st2 {
        fill: #fff;
      }

      .st3 {
        fill: #003253;
      }
    </style>
  </defs>
  <g>
    <path class="st3" d="M322.62,74.52l-.17-20.46-9.34,14.36c-.42.42-1.65.43-1.98-.1l-9.16-14.28-.13,20.47-8.06-.04v-34.43s8.16-.08,8.16-.08l10.28,16.08,10.31-15.95,8.08-.05v34.45s-7.99.03-7.99.03Z"/>
    <path class="st3" d="M413.46,74.63c-3.67.78-7.27.59-10.72-.37-7.35-2.04-12.23-8.39-12.59-16.02-.28-5.84,1.83-11.41,6.51-14.99,4.95-3.79,11.26-4.62,17.24-3.27,8.06,1.82,13.33,8.45,13.55,16.66.24,8.69-5.22,16.13-13.99,17.99ZM415.39,65.35c4.68-3.93,4.99-11.07.95-15.39-4.09-4.38-11.56-4.31-15.42.35-3.28,3.96-3.11,10.24.26,14.08s10.04,4.47,14.22.97Z"/>
    <path class="st3" d="M370.08,61.63l.07-6.9h15.13s.09,15.42.09,15.42c-5.51,4.4-12.75,5.98-19.67,4.3-7.06-1.7-11.86-7.43-12.75-14.67-.76-6.15,1.03-12.61,6.14-16.46,7.41-5.59,18-5.25,25.34.58l-5.07,6.04c-4.5-3.99-11.69-4.49-15.8.32-3.29,3.85-3.17,10.45.03,14.32,3.44,4.17,9.43,4.28,13.9,1.97l.03-4.84-7.44-.08Z"/>
    <path class="st3" d="M279.03,67.46l-14.07.02-2.77,7.02-8.55-.06,13.78-34.47,8.96-.02,13.87,34.47-8.63.07-2.59-7.03ZM276.29,60.45l-4.43-11.46-4.4,11.45h8.83Z"/>
    <path class="st3" d="M458.12,67.89c-3.22,9.96-20.56,8.54-27.78,2l4.62-5.78c3.79,2.98,8.01,4.62,12.64,3.84,1.36-.23,2.54-1.31,2.74-2.45.24-1.38-.6-2.91-2.06-3.37l-6.42-1.99c-2.69-.83-5.62-1.75-7.57-3.95-3.11-3.53-3.09-9.4.06-12.87,5.38-5.93,17.27-4.5,23.6.25l-4.01,6.03c-3.3-2.94-12.8-5.11-13.38-.66-.19,1.46.71,2.73,2.15,3.19l7.87,2.48c1.98.62,4.14,1.65,5.61,3.11,2.71,2.7,3.12,6.54,1.94,10.18Z"/>
    <polygon class="st3" points="346.84 74.45 338.75 74.5 338.69 40.03 346.83 39.98 346.84 74.45"/>
    <path class="st3" d="M436.57,107.91c-.79.38-2.6.39-3.68.16l-7.48-9.55-.13,9.7-3.8-.04v-15.86c1.24-.17,2.88-.18,3.82.17l7.34,9.14.16-9.36,3.75.03.03,15.62Z"/>
    <path class="st3" d="M318.21,108.52c-4.97-.09-8.52-3.45-8.67-8.04s3.32-8.18,8.06-8.52c5.09-.36,9.23,2.85,9.47,7.77.24,4.94-3.51,8.89-8.87,8.79ZM323.07,99.73c-.18-3.37-3.18-4.83-5.86-4.29-2.96.59-4.24,3.52-3.42,6.42.7,2.5,3.15,3.64,5.56,3.18s3.88-2.45,3.73-5.32Z"/>
    <path class="st3" d="M449.91,102.04l-.05-2.97h7.19s-.04,7.25-.04,7.25c-3.19,2.25-7.17,2.88-10.71,1.46-3.05-1.23-4.69-3.94-4.81-7.12-.19-4.72,3.15-8.31,7.87-8.64,2.73-.19,5.2.21,7.31,2.34l-2.22,2.5c-2.15-1.68-5-2.12-7.16-.55-2.29,1.66-2.28,4.91-.85,7.09s4.91,2.36,6.86,1.03c.41-.33.37-2.01.03-2.19l-3.41-.19Z"/>
    <path class="st3" d="M368.05,101.84l-7.68.03.02,3.15,8.56-.02.08,3.26-12.62-.04.05-16.03,12.11-.04c.47.8.48,2.28.19,3.32l-8.37.04-.09,3,7.57.08.17,3.25Z"/>
    <path class="st3" d="M264.34,105.18l-6.88-.03-1.22,3.04-4.14-.05,6.6-15.66c1.28-.32,2.72-.34,4.23-.2l6.73,15.85-4.05.11-1.27-3.06ZM263.16,101.89l-2.25-5.18-2.2,5.18h4.45Z"/>
    <path class="st3" d="M385.03,105.18l-6.82-.04-1.36,3.04-4.07-.04,6.62-15.66c1.16-.35,2.61-.35,4.2-.22l6.75,15.86-4.06.09-1.27-3.05ZM383.86,101.84l-2.3-5.13-2.16,5.2,4.46-.07Z"/>
    <path class="st3" d="M284.07,92.29l3.85-.03-.02,9.62c0,4.34-3.49,6.79-7.57,6.65-3.42-.12-7.1-1.98-7.14-5.86l-.12-10.39h3.78s.08,9.52.08,9.52c.02,2.21,1.97,3.41,3.59,3.37,2.47-.05,3.53-1.71,3.53-4.09v-8.79Z"/>
    <path class="st3" d="M403.57,107.97c-3.7,1.15-7.44.43-10.25-2.02l2.09-2.45c1.84,1.73,7.03,2.77,7.45.52.08-.43-.55-1.37-.99-1.49l-4.54-1.33c-2.13-.62-3.31-2.37-3.34-4.27-.03-1.99,1.03-3.74,3.11-4.42,3.18-1.05,6.53-.68,9.28,1.5l-1.85,2.43c-1.92-1.24-6.57-1.84-6.61.09,0,.4.65,1.15,1.09,1.28l4.23,1.24c2.17.64,3.47,2.27,3.52,4.25s-.88,3.96-3.19,4.68Z"/>
    <polygon class="st3" points="301.38 108.16 297.48 108.2 297.48 95.69 292.42 95.46 292.37 92.19 306.37 92.13 306.52 95.49 301.38 95.64 301.38 108.16"/>
    <path class="st3" d="M351.76,104.97l.03,3.27h-11.74s-.06-15.71-.06-15.71c1.14-.4,2.47-.4,3.83-.21l.06,12.53,7.87.12Z"/>
    <path class="st3" d="M415.66,107.94c-1.02.34-2.51.34-3.86.14l.03-15.81h3.79s.04,15.67.04,15.67Z"/>
    <line class="st3" x1="263.16" y1="101.89" x2="258.71" y2="101.89"/>
  </g>
  <g>
    <path class="st0" d="M122.13,103.96l-2.86-3.94-35.71-.18c-2.73,3.84-6.61,6.38-11.49,6.38-8.23,0-11.66.42-17.31-6.07-1.24-.55-2.82-.8-3.74-2.3,9.7.59,19.14.89,28.97.46,2.54-.11,4.77-.35,6.94-1.42l-16.48-.49-27.24-.8c-2.7-1.09-1-4.24-1.13-5.95-.31-4.27-.99-8.2-.79-12.34.15-3.03,2.21-4.88,3.12-7.26,1.21-3.14,1.65-5.79,4.76-7.87,11.59-7.76,29.9-9.35,43.43-12.15l19.22-12.29c12.56-8.03,39.54-8.13,55.01-8.81,5.51-.24,10.71.02,16.15.55,16.65,1.63,27.79,8.04,40.97,17.63,4.3,3.12,8.76,4.77,13.66,6.83,3.19,1.34,4.79,5.92,5.23,9.08,1.6,11.54,3.01,7.29,1.45,20.97-.46,4.06-4.94,5.05-7.96,6.03-.58,2.44-.93,4.96-1.72,7.35-1.14,3.47-4.57,6.09-8.2,6.54-2.55.31-5.02.05-7.57-.02-3.71-.1-7-1.76-8.79-5.12l-2.57-4.81-55.12,3.86-1.65,3.6c-2.54,5.56-7.99,7.79-13.92,7.51l-6.04-.29c-3.43-.17-6.54-1.8-8.63-4.68ZM131.63,58.54c9.06-2.06,21.31-2.52,30.47-2.72-1.92,2.24-4.06,2.5-6.89,2.72l.05,3.56,27.45-3.09,31.23-2.99c1.5-.14,3.22-1.31,4-2.49.93-1.4.28-3.21-.75-4.44-3.83-4.56-8.52-8.31-13.97-10.86-6.81-3.19-13.78-5.24-21.23-5.9-6.78-.76-12.82,1.75-17.6,6.48-4.52,4.48-8.14,9.48-11.39,14.96-20.09-.3-42.35,1.95-61.31,7.94-2.01.63-3.8,1.67-5.52,2.88l-16.11.02-17.47.08c-1.54,0-3.26.34-3.03,2.41,12.58.11,24.59.69,36.73-1.11l21.95-3.26c7.9-1.17,15.43-2.38,23.37-4.18ZM118.7,50.52l25.09-.11c2.26.31,4.28-.72,5.65-2.49l12.53-13.46c-11.86-.5-23.35.17-34.98,1.34-3.02.3-5.89,1.33-8.54,2.7-6.71,3.47-12.79,7.29-19.18,12.16l19.42-.13ZM241.25,65.78c.84-2.03.61-4.22-.81-5.76-1.06-1.14-2.86-1.43-4.56-.87,1.11,2.63,2.87,4.77,5.37,6.63ZM230.78,68.34c4.13,3.99,3.6.18,5.1,5.52.29-7.13-.28-7.13-8.12-10.17-4.28-1.66-8.92-.35-11.25,3.72-3.13,5.48-4.91,11.88-4.06,18.24l1.54-6.07c1.03-4.06,2.71-8.01,5.65-10.94,3.14-3.12,7.85-3.47,11.14-.3ZM94.51,72.66c7.08-.21,13.61-.94,20.47-1.65,2.47-.25,5.13-4.86,6.78-7.49l-32.7,4.11c.68,2.44,2.64,5.11,5.44,5.02ZM81.81,71.13c.75-.06,1.87-.91,1.36-1.57-11.55.8-24.62.64-35.39.22-.5-.02-.71.91-.49,1.11s.96.6,1.33.61c11.09.45,22.16.51,33.19-.37ZM50.41,82.64c7.27.37,14.33.6,21.66.52,7.44-.08,10.08-3.75,15.17-8.44-1.02-4.74-4.06,4.02-11.24,5.36-4.53.85-9.18.7-13.82.53l-11.53-.41c-3.96-.14-3.81-4.18-5.56-6.33-1.18,3.51,1.36,8.55,5.32,8.75ZM80.36,74.07l-16.23.13-16.38-.47c-.09.51.7,1.92,1.27,1.93l17.49.42c2.51.06,13.45.78,13.85-2.01ZM230.34,97.68c5.45-6.18,3.1-23.61-4.55-23.82-1.97-.06-3.71,1.02-4.99,2.62-4.29,5.36-3.94,16.17,1.14,21.46,2.37,2.47,5.98,2.49,8.4-.25ZM140.78,103.95c3.17-.32,5.52-2.76,6.97-5.42,3.54-6.5,2.39-15.04-2.46-20.59-2.56-2.93-6.51-3.43-9.62-1.34-6.85,4.59-7.46,15.6-3.23,22.45,1.74,2.82,4.74,5.26,8.34,4.9ZM89.92,89.77c1.75,1.2,3.93,3.59,6.41,3.56l18.06-.22c-.54-4.31-3.35-11.72-8.24-11.28s-9.63,1.33-14.31,2.37l14.97.07c2.96.01,4.62,4.78,4.87,7.31-5.24.12-9.83.35-14.61-.09-2.45-.23-4.62-1.94-7.15-1.72ZM168.71,91.2l36.17-2.56c1.65-.12,3.14-1.37,4.36-2.53-1.69-.4-3.33-.6-5.13-.42l-34.44,3.45c-3.86.39-7.27,1.17-10.82,2.3l9.86-.24Z"/>
    <path class="st3" d="M122.13,103.96l-2.86-3.94-35.71-.18c-2.73,3.84-6.61,6.38-11.49,6.38-8.23,0-11.66.42-17.31-6.07-1.24-.55-2.82-.8-3.74-2.3,9.7.59,19.14.89,28.97.46,2.54-.11,4.77-.35,6.94-1.42l-16.48-.49-27.24-.8c-2.7-1.09-1-4.24-1.13-5.95-.31-4.27-.99-8.2-.79-12.34.15-3.03,2.21-4.88,3.12-7.26,1.21-3.14,1.65-5.79,4.76-7.87,11.59-7.76,29.9-9.35,43.43-12.15l19.22-12.29c12.56-8.03,39.54-8.13,55.01-8.81,5.51-.24,10.71.02,16.15.55,16.65,1.63,27.79,8.04,40.97,17.63,4.3,3.12,8.76,4.77,13.66,6.83,3.19,1.34,4.79,5.92,5.23,9.08,1.6,11.54,3.01,7.29,1.45,20.97-.46,4.06-4.94,5.05-7.96,6.03-.58,2.44-.93,4.96-1.72,7.35-1.14,3.47-4.57,6.09-8.2,6.54-2.55.31-5.02.05-7.57-.02-3.71-.1-7-1.76-8.79-5.12l-2.57-4.81-55.12,3.86-1.65,3.6c-2.54,5.56-7.99,7.79-13.92,7.51l-6.04-.29c-3.43-.17-6.54-1.8-8.63-4.68ZM131.63,58.54c9.06-2.06,21.31-2.52,30.47-2.72-1.92,2.24-4.06,2.5-6.89,2.72l.05,3.56,27.45-3.09,31.23-2.99c1.5-.14,3.22-1.31,4-2.49.93-1.4.28-3.21-.75-4.44-3.83-4.56-8.52-8.31-13.97-10.86-6.81-3.19-13.78-5.24-21.23-5.9-6.78-.76-12.82,1.75-17.6,6.48-4.52,4.48-8.14,9.48-11.39,14.96-20.09-.3-42.35,1.95-61.31,7.94-2.01.63-3.8,1.67-5.52,2.88l-16.11.02-17.47.08c-1.54,0-3.26.34-3.03,2.41,12.58.11,24.59.69,36.73-1.11l21.95-3.26c7.9-1.17,15.43-2.38,23.37-4.18ZM118.7,50.52l25.09-.11c2.26.31,4.28-.72,5.65-2.49l12.53-13.46c-11.86-.5-23.35.17-34.98,1.34-3.02.3-5.89,1.33-8.54,2.7-6.71,3.47-12.79,7.29-19.18,12.16l19.42-.13ZM241.25,65.78c.84-2.03.61-4.22-.81-5.76-1.06-1.14-2.86-1.43-4.56-.87,1.11,2.63,2.87,4.77,5.37,6.63ZM230.78,68.34c4.13,3.99,4.67,9.16,6.17,14.5.29-7.13-1.35-16.11-9.19-19.15-4.28-1.66-8.92-.35-11.25,3.72-3.13,5.48-4.91,11.88-4.06,18.24l1.54-6.07c1.03-4.06,2.71-8.01,5.65-10.94,3.14-3.12,7.85-3.47,11.14-.3ZM94.51,72.66c7.08-.21,13.61-.94,20.47-1.65,2.47-.25,5.13-4.86,6.78-7.49l-32.7,4.11c.68,2.44,2.64,5.11,5.44,5.02ZM146.4,69.81c6.6,5.35,8.02,14.2,8.77,22.26,1.14-6.33.51-12.92-2.13-18.83s-8.24-9.69-14.72-8.93c-11.99,1.4-17.57,19.1-15.71,28.98,1.08-8.53,4.03-18.89,11.01-23.88,3.89-2.77,8.8-2.38,12.78.4ZM191.3,64.6l.33,18.94c.93-4.39,1.82-15.99-.33-18.94ZM81.81,71.13c.75-.06,1.87-.91,1.36-1.57-11.55.8-24.62.64-35.39.22-.5-.02-.71.91-.49,1.11s.96.6,1.33.61c11.09.45,22.16.51,33.19-.37ZM50.41,82.64c7.27.37,14.33.6,21.66.52,7.44-.08,10.08-3.75,15.17-8.44-1.02-4.74-4.06,4.02-11.24,5.36-4.53.85-9.18.7-13.82.53l-11.53-.41c-3.96-.14-3.81-4.18-5.56-6.33-1.18,3.51,1.36,8.55,5.32,8.75ZM80.36,74.07l-16.23.13-16.38-.47c-.09.51.7,1.92,1.27,1.93l17.49.42c2.51.06,13.45.78,13.85-2.01ZM230.34,97.68c5.45-6.18,3.1-23.61-4.55-23.82-1.97-.06-3.71,1.02-4.99,2.62-4.29,5.36-3.94,16.17,1.14,21.46,2.37,2.47,5.98,2.49,8.4-.25ZM140.78,103.95c3.17-.32,5.52-2.76,6.97-5.42,3.54-6.5,2.39-15.04-2.46-20.59-2.56-2.93-6.51-3.43-9.62-1.34-6.85,4.59-7.46,15.6-3.23,22.45,1.74,2.82,4.74,5.26,8.34,4.9ZM89.92,89.77c1.75,1.2,3.93,3.59,6.41,3.56l18.06-.22c-.54-4.31-3.35-11.72-8.24-11.28s-9.63,1.33-14.31,2.37l14.97.07c2.96.01,4.62,4.78,4.87,7.31-5.24.12-9.83.35-14.61-.09-2.45-.23-4.62-1.94-7.15-1.72ZM168.71,91.2l36.17-2.56c1.65-.12,3.14-1.37,4.36-2.53-1.69-.4-3.33-.6-5.13-.42l-34.44,3.45c-3.86.39-7.27,1.17-10.82,2.3l9.86-.24Z"/>
    <path class="st2" d="M131.63,58.54c-7.94,1.8-15.47,3.01-23.37,4.18l-21.95,3.26c-12.14,1.8-24.15,1.21-36.73,1.11-.22-2.07,1.49-2.4,3.03-2.41l17.47-.08,16.11-.02c1.72-1.21,3.52-2.24,5.52-2.88,18.96-5.99,41.22-8.23,61.31-7.94,3.25-5.48,6.86-10.48,11.39-14.96,4.78-4.73,10.81-7.23,17.6-6.48,7.45.66,14.42,2.71,21.23,5.9,5.45,2.55,10.14,6.3,13.97,10.86,1.03,1.23,1.68,3.04.75,4.44-.78,1.18-2.51,2.34-4,2.49l-31.23,2.99-27.45,3.09-.05-3.56c2.83-.22,4.97-.48,6.89-2.72-9.16.2-21.41.66-30.47,2.72ZM173.52,45.79c1.34.27,2.66,1.65,3.07,2.66.46,1.15.09,2.93-.51,4.37l38.88-1.08c-.17-1.78-1.57-3.06-2.65-4.35-3.51-4.2-7.76-6.79-12.8-8.79-6.82-2.71-13.7-4.59-21.17-4.18-4.14.22-7.77,1.9-10.82,4.69-4.62,4.23-8.37,9.04-11.62,14.79,6.26.13,11.85-.24,17.57-1.34,1.06-1.17.95-3.24-.17-4.37l-9.27-.95c-.42-3.06,7.53-1.83,9.48-1.44Z"/>
    <path class="st2" d="M118.7,50.52l-19.42.13c6.39-4.86,12.47-8.68,19.18-12.16,2.65-1.37,5.52-2.39,8.54-2.7,11.63-1.16,23.12-1.83,34.98-1.34l-12.53,13.46c-1.37,1.77-3.4,2.8-5.65,2.49l-25.09.11Z"/>
    <path class="st2" d="M140.78,103.95c-3.59.36-6.59-2.08-8.34-4.9-4.23-6.84-3.62-17.86,3.23-22.45,3.11-2.08,7.05-1.58,9.62,1.34,4.85,5.54,6,14.08,2.46,20.59-1.45,2.66-3.79,5.09-6.97,5.42ZM144.16,79.61c-2.13-1.48-3.42-2.1-5.62-2.09.1,3.34.15,6.06,1.17,9.41,2.16-2.52,3.2-4.59,4.44-7.33ZM137.54,88.41l-2.27-8.81c-2.34,2.63-3.18,5.14-3.38,8.22l5.66.59ZM147.79,93.29c.29-3.83.08-6.08-1.13-9.27-1.75,1.71-6.35,4.84-4.48,6.79l5.6,2.48ZM139.89,91c.57-.29.79-1.37.63-1.78s-.89-1.33-1.3-1.17c-.5.18-.77,1.53-.66,2.06.09.41.93,1.09,1.33.89ZM136.34,100.19l1.39-8.95-5.77,1.64c.74,2.91,1.68,5.31,4.38,7.31ZM145.47,97.96c-1.32-2.01-2.87-3.82-5-5.52-.46,3.2-.4,5.96-.26,9.2,2.29.03,4.51-1.64,5.27-3.69Z"/>
    <path class="st2" d="M230.34,97.68c-2.42,2.74-6.02,2.72-8.4.25-5.08-5.29-5.43-16.1-1.14-21.46,1.28-1.6,3.02-2.67,4.99-2.62,7.65.22,10,17.65,4.55,23.82ZM225.23,84.23c1.6-2.66,2.31-4.74,3.1-7.21-1.46-1.11-3.7-1.58-4.9-.32.3,2.69.68,4.96,1.81,7.52ZM224.04,86.25c-1.05-2.73-1.73-4.36-3.01-6.63-1.41,2.62-1.65,4.65-1.68,7.46,1.77-.21,2.84-.38,4.69-.83ZM227.58,87.28l4.37,1.35c.21-3.17.02-5.28-1.2-8.07-.78.88-5.41,6.03-3.17,6.72ZM224.17,97.48c.38-3.36.47-5.57.17-8.93l-4.41,2.77c1.06,2.39,1.94,4.29,4.25,6.17ZM230.94,92.64l-4.19-3.61c-.27.47-.63,1.41-.57,1.77l1.08,6.71c2.07-1.02,3.09-2.7,3.68-4.86Z"/>
    <path class="st2" d="M94.51,72.66c-2.8.08-4.76-2.59-5.44-5.02l32.7-4.11c-1.65,2.63-4.31,7.24-6.78,7.49-6.87.7-13.39,1.44-20.47,1.65Z"/>
    <path class="st2" d="M146.4,69.81c-3.97-2.79-8.89-3.17-12.78-.4-6.99,4.98-9.93,15.34-11.01,23.88-1.86-9.88,3.72-27.58,15.71-28.98,6.48-.76,12.09,3.05,14.72,8.93s3.27,12.5,2.13,18.83c-.75-8.06-2.17-16.91-8.77-22.26Z"/>
    <path class="st2" d="M168.71,91.2l-9.86.24c3.56-1.13,6.96-1.91,10.82-2.3l34.44-3.45c1.79-.18,3.43.02,5.13.42-1.22,1.16-2.71,2.41-4.36,2.53l-36.17,2.56Z"/>
    <path class="st2" d="M50.41,82.64c-3.96-.2-6.5-5.24-5.32-8.75,1.75,2.15,1.59,6.19,5.56,6.33l11.53.41c4.64.16,9.29.32,13.82-.53,7.18-1.35,10.22-10.11,11.24-5.36-5.1,4.69-7.73,8.36-15.17,8.44-7.33.08-14.39-.15-21.66-.52Z"/>
    <path class="st2" d="M89.92,89.77c2.53-.23,4.7,1.49,7.15,1.72,4.78.44,9.37.21,14.61.09-.25-2.53-1.91-7.29-4.87-7.31l-14.97-.07c4.69-1.04,9.36-1.92,14.31-2.37s7.7,6.97,8.24,11.28l-18.06.22c-2.48.03-4.66-2.36-6.41-3.56Z"/>
    <path class="st2" d="M80.36,74.07c-.4,2.79-11.34,2.07-13.85,2.01l-17.49-.42c-.57-.01-1.36-1.43-1.27-1.93l16.38.47,16.23-.13Z"/>
    <path class="st2" d="M81.81,71.13c-11.03.88-22.11.82-33.19.37-.36-.01-1.1-.41-1.33-.61s-.01-1.13.49-1.11c10.77.42,23.84.58,35.39-.22.5.66-.61,1.51-1.36,1.57Z"/>
    <path class="st2" d="M241.25,65.78c-2.5-1.86-4.26-4-5.37-6.63,1.7-.56,3.5-.28,4.56.87,1.43,1.54,1.65,3.73.81,5.76Z"/>
    <path class="st2" d="M191.3,64.6c2.15,2.95,1.26,14.55.33,18.94l-.33-18.94Z"/>
    <path class="st1" d="M173.52,45.79c-1.95-.39-9.9-1.62-9.48,1.44l9.27.95c1.12,1.12,1.23,3.2.17,4.37-5.72,1.1-11.31,1.46-17.57,1.34,3.25-5.75,7-10.56,11.62-14.79,3.05-2.79,6.68-4.47,10.82-4.69,7.47-.4,14.35,1.47,21.17,4.18,5.04,2.01,9.29,4.59,12.8,8.79,1.08,1.29,2.48,2.57,2.65,4.35l-38.88,1.08c.6-1.44.97-3.22.51-4.37-.41-1.01-1.73-2.39-3.07-2.66ZM184.86,36.29c.6,4.92,1.95,9.49,3,14.17l1.36-.1c.28-.02-3.23-13.11-4.36-14.08Z"/>
    <path class="st1" d="M147.79,93.29l-5.6-2.48c-1.87-1.95,2.73-5.08,4.48-6.79,1.2,3.19,1.42,5.44,1.13,9.27Z"/>
    <path class="st1" d="M144.16,79.61c-1.24,2.73-2.29,4.8-4.44,7.33-1.02-3.35-1.07-6.07-1.17-9.41,2.19-.01,3.48.6,5.62,2.09Z"/>
    <path class="st1" d="M145.47,97.96c-.75,2.04-2.97,3.71-5.27,3.69-.13-3.24-.2-6,.26-9.2,2.13,1.7,3.69,3.51,5,5.52Z"/>
    <path class="st1" d="M136.34,100.19c-2.7-2-3.64-4.4-4.38-7.31l5.77-1.64-1.39,8.95Z"/>
    <path class="st1" d="M137.54,88.41l-5.66-.59c.2-3.08,1.04-5.59,3.38-8.22l2.27,8.81Z"/>
    <path class="st1" d="M139.89,91c-.4.2-1.24-.48-1.33-.89-.11-.53.16-1.88.66-2.06.41-.15,1.14.77,1.3,1.17s-.06,1.49-.63,1.78Z"/>
    <path class="st1" d="M227.58,87.28c-2.24-.69,2.39-5.84,3.17-6.72,1.23,2.78,1.41,4.89,1.2,8.07l-4.37-1.35Z"/>
    <path class="st1" d="M225.23,84.23c-1.12-2.57-1.51-4.84-1.81-7.52,1.2-1.26,3.44-.8,4.9.32-.79,2.47-1.49,4.55-3.1,7.21Z"/>
    <path class="st1" d="M224.17,97.48c-2.3-1.87-3.19-3.78-4.25-6.17l4.41-2.77c.3,3.36.21,5.57-.17,8.93Z"/>
    <path class="st1" d="M230.94,92.64c-.59,2.17-1.61,3.84-3.68,4.86l-1.08-6.71c-.06-.35.3-1.29.57-1.77l4.19,3.61Z"/>
    <path class="st1" d="M224.04,86.25c-1.86.45-2.93.63-4.69.83.04-2.81.27-4.85,1.68-7.46,1.28,2.27,1.96,3.9,3.01,6.63Z"/>
    <path class="st2" d="M184.86,36.29c1.14.97,4.65,14.06,4.36,14.08l-1.36.1c-1.06-4.69-2.41-9.26-3-14.17Z"/>
  </g>
</svg>
